<?xml version="1.0" encoding="utf-8"?>
<!-- Generator: Adobe Illustrator 24.2.0, SVG Export Plug-In . SVG Version: 6.00 Build 0)  -->
<svg version="1.1" id="Layer_1" xmlns="http://www.w3.org/2000/svg" xmlns:xlink="http://www.w3.org/1999/xlink" x="0px" y="0px"
	 viewBox="0 0 512 512" style="enable-background:new 0 0 512 512;" xml:space="preserve">
<style type="text/css">
	.st0{fill:#0041FF;}
</style>
<g>
	<g>
		<path class="st0" d="M256,0C114.5,0,0,114.5,0,256c0,141.5,114.5,256,256,256c141.5,0,256-114.5,256-256C512,114.5,397.5,0,256,0z
			 M256,477.9c-122.3,0-221.9-99.5-221.9-221.9S133.7,34.1,256,34.1S477.9,133.7,477.9,256S378.3,477.9,256,477.9z"/>
	</g>
</g>
<g>
	<g>
		<path class="st0" d="M249.5,312c-12.1,0-21.9,10.1-21.9,22.2c0,11.8,9.5,22.2,21.9,22.2s22.2-10.4,22.2-22.2
			C271.7,322.1,261.6,312,249.5,312z"/>
	</g>
</g>
<g>
	<g>
		<path class="st0" d="M253.3,143.7c-39,0-56.9,23.1-56.9,38.7c0,11.3,9.5,16.5,17.3,16.5c15.6,0,9.2-22.2,38.7-22.2
			c14.4,0,26,6.3,26,19.6c0,15.6-16.2,24.5-25.7,32.6c-8.4,7.2-19.3,19.1-19.3,43.9c0,15,4,19.3,15.9,19.3c14.1,0,17-6.4,17-11.8
			c0-15,0.3-23.7,16.2-36.1c7.8-6.1,32.3-25.7,32.3-52.8S290.2,143.7,253.3,143.7z"/>
	</g>
</g>
</svg>
