<?xml version="1.0" encoding="utf-8"?>
<!-- Generator: Adobe Illustrator 24.2.0, SVG Export Plug-In . SVG Version: 6.00 Build 0)  -->
<svg version="1.1" id="Capa_1" xmlns="http://www.w3.org/2000/svg" xmlns:xlink="http://www.w3.org/1999/xlink" x="0px" y="0px"
	 width="317.59px" height="143.766px" viewBox="0 0 317.59 143.766" style="enable-background:new 0 0 317.59 143.766;"
	 xml:space="preserve">
<style type="text/css">
	.st0{fill:#FFFFFF;}
</style>
<g>
	<g>
		<path class="st0" d="M17.171,98.626h2.683V99.5c0,0.45-0.048,0.828-0.048,0.828h0.048c0,0,1.015-1.985,3.791-1.985
			c3.192,0,5.227,2.573,5.227,6.306c0,3.825-2.29,6.306-5.389,6.306c-2.335,0-3.375-1.653-3.375-1.653h-0.046
			c0,0,0.046,0.424,0.046,1.039v5.054h-2.937V98.626z M22.952,108.428c1.618,0,2.96-1.347,2.96-3.733
			c0-2.29-1.203-3.779-2.937-3.779c-1.526,0-2.96,1.134-2.96,3.802C20.016,106.585,21.01,108.428,22.952,108.428z"/>
		<path class="st0" d="M36.9,98.343c3.606,0,6.496,2.622,6.496,6.306c0,3.707-2.891,6.306-6.473,6.306
			c-3.607,0-6.498-2.599-6.498-6.306C30.425,100.965,33.316,98.343,36.9,98.343z M36.923,108.405c1.895,0,3.491-1.512,3.491-3.756
			c0-2.221-1.595-3.756-3.491-3.756c-1.92,0-3.515,1.535-3.515,3.756C33.408,106.894,35.003,108.405,36.923,108.405z"/>
		<path class="st0" d="M45.761,98.626h2.821v2.08c0,0.447-0.046,0.848-0.046,0.848h0.046c0.532-1.722,1.943-3.092,3.746-3.092
			c0.277,0,0.532,0.046,0.532,0.046v2.954c0,0-0.301-0.049-0.694-0.049c-1.249,0-2.66,0.733-3.214,2.527
			c-0.186,0.591-0.255,1.252-0.255,1.962v4.771h-2.937V98.626z"/>
		<path class="st0" d="M60.31,93.904h2.914v12.563c0,1.324,0.44,1.653,1.203,1.653c0.231,0,0.438-0.023,0.438-0.023v2.622
			c0,0-0.438,0.072-0.923,0.072c-1.62,0-3.632-0.427-3.632-3.874V93.904z"/>
		<path class="st0" d="M73.032,103.115h0.392v-0.167c0-1.581-0.972-2.123-2.266-2.123c-1.689,0-3.238,1.157-3.238,1.157
			l-1.109-2.149c0,0,1.827-1.489,4.624-1.489c3.1,0,4.903,1.748,4.903,4.794v7.535h-2.706v-0.992c0-0.473,0.046-0.851,0.046-0.851
			h-0.046c0.023,0-0.901,2.126-3.584,2.126c-2.104,0-4-1.347-4-3.756C66.048,103.374,71.11,103.115,73.032,103.115z M70.787,108.616
			c1.549,0,2.66-1.699,2.66-3.165v-0.283h-0.509c-1.503,0-3.93,0.213-3.93,1.89C69.008,107.86,69.584,108.616,70.787,108.616z"/>
		<path class="st0" d="M85.015,93.904h2.914v2.668h-2.914V93.904z M85.015,98.626h2.937v12.047h-2.937V98.626z"/>
		<path class="st0" d="M95.653,113.081c1.804,0,3.33-0.779,3.33-2.928v-0.71c0-0.283,0.046-0.638,0.046-0.638h-0.046
			c-0.694,1.062-1.711,1.63-3.283,1.63c-3.378,0-5.296-2.787-5.296-6.095c0-3.306,1.826-5.997,5.226-5.997
			c2.566,0,3.492,1.535,3.492,1.535h0.069c0,0-0.023-0.141-0.023-0.332v-0.92h2.752v11.314c0,4.134-3.144,5.692-6.22,5.692
			c-1.48,0-3.054-0.424-4.186-1.039l0.878-2.29C92.393,112.302,93.873,113.081,95.653,113.081z M99.052,104.367
			c0-2.741-1.318-3.473-2.914-3.473c-1.78,0-2.775,1.324-2.775,3.355c0,2.1,1.064,3.661,2.96,3.661
			C97.734,107.909,99.052,107.081,99.052,104.367z"/>
		<path class="st0" d="M105.001,98.626h2.937v7.134c0,1.463,0.369,2.455,1.826,2.455c2.128,0,3.306-1.913,3.306-4.062v-5.527h2.937
			v12.047h-2.821v-1.37c0-0.473,0.046-0.851,0.046-0.851h-0.046c-0.577,1.252-2.08,2.504-4.092,2.504
			c-2.52,0-4.092-1.298-4.092-4.581V98.626z"/>
		<path class="st0" d="M125.237,103.115h0.392v-0.167c0-1.581-0.971-2.123-2.266-2.123c-1.688,0-3.237,1.157-3.237,1.157
			l-1.109-2.149c0,0,1.826-1.489,4.624-1.489c3.098,0,4.901,1.748,4.901,4.794v7.535h-2.706v-0.992c0-0.473,0.046-0.851,0.046-0.851
			h-0.046c0.023,0-0.9,2.126-3.583,2.126c-2.104,0-4.001-1.347-4.001-3.756C118.253,103.374,123.317,103.115,125.237,103.115z
			 M122.994,108.616c1.549,0,2.658-1.699,2.658-3.165v-0.283h-0.508c-1.503,0-3.932,0.213-3.932,1.89
			C121.213,107.86,121.791,108.616,122.994,108.616z"/>
		<path class="st0" d="M131.439,93.904h2.914v12.563c0,1.324,0.438,1.653,1.202,1.653c0.232,0,0.44-0.023,0.44-0.023v2.622
			c0,0-0.44,0.072-0.926,0.072c-1.618,0-3.629-0.427-3.629-3.874V93.904z"/>
		<path class="st0" d="M142.701,98.343c2.59,0,3.4,1.535,3.4,1.535h0.046c0,0-0.023-0.306-0.023-0.684v-5.291h2.937v16.769h-2.775
			v-0.992c0-0.45,0.046-0.779,0.046-0.779h-0.046c0,0-0.994,2.054-3.7,2.054c-3.191,0-5.226-2.573-5.226-6.306
			C137.36,100.824,139.58,98.343,142.701,98.343z M143.257,108.428c1.526,0,2.96-1.134,2.96-3.802c0-1.866-0.971-3.71-2.937-3.71
			c-1.618,0-2.96,1.347-2.96,3.733C140.32,106.94,141.522,108.428,143.257,108.428z"/>
		<path class="st0" d="M158.292,103.115h0.394v-0.167c0-1.581-0.972-2.123-2.267-2.123c-1.688,0-3.237,1.157-3.237,1.157
			l-1.111-2.149c0,0,1.827-1.489,4.624-1.489c3.1,0,4.903,1.748,4.903,4.794v7.535h-2.704v-0.992c0-0.473,0.046-0.851,0.046-0.851
			h-0.046c0.023,0-0.903,2.126-3.584,2.126c-2.104,0-4-1.347-4-3.756C151.309,103.374,156.372,103.115,158.292,103.115z
			 M156.049,108.616c1.549,0,2.66-1.699,2.66-3.165v-0.283h-0.511c-1.503,0-3.929,0.213-3.929,1.89
			C154.269,107.86,154.846,108.616,156.049,108.616z"/>
		<path class="st0" d="M169.186,98.343c2.59,0,3.4,1.535,3.4,1.535h0.046c0,0-0.023-0.306-0.023-0.684v-5.291h2.937v16.769h-2.775
			v-0.992c0-0.45,0.046-0.779,0.046-0.779h-0.046c0,0-0.994,2.054-3.7,2.054c-3.191,0-5.226-2.573-5.226-6.306
			C163.845,100.824,166.065,98.343,169.186,98.343z M169.742,108.428c1.526,0,2.96-1.134,2.96-3.802c0-1.866-0.971-3.71-2.937-3.71
			c-1.618,0-2.96,1.347-2.96,3.733C166.805,106.94,168.006,108.428,169.742,108.428z"/>
		<path class="st0" d="M183.785,112.608c0,0,0.648,0.496,1.317,0.496c0.811,0,1.597-0.496,2.037-1.558l0.438-1.064l-4.972-11.856
			h3.307l2.474,6.944c0.232,0.638,0.44,1.63,0.44,1.63h0.046c0,0,0.185-0.943,0.392-1.581l2.314-6.993h3.214l-5.273,13.864
			c-0.831,2.198-2.474,3.141-4.254,3.141c-1.411,0-2.451-0.779-2.451-0.779L183.785,112.608z"/>
		<path class="st0" d="M201.92,93.904h2.914v12.563c0,1.324,0.438,1.653,1.201,1.653c0.232,0,0.44-0.023,0.44-0.023v2.622
			c0,0-0.44,0.072-0.926,0.072c-1.618,0-3.629-0.427-3.629-3.874V93.904z"/>
		<path class="st0" d="M214.638,103.115h0.394v-0.167c0-1.581-0.971-2.123-2.266-2.123c-1.688,0-3.237,1.157-3.237,1.157
			l-1.111-2.149c0,0,1.826-1.489,4.624-1.489c3.098,0,4.903,1.748,4.903,4.794v7.535h-2.706v-0.992c0-0.473,0.046-0.851,0.046-0.851
			h-0.046c0.023,0-0.901,2.126-3.584,2.126c-2.103,0-4-1.347-4-3.756C207.656,103.374,212.72,103.115,214.638,103.115z
			 M212.396,108.616c1.551,0,2.66-1.699,2.66-3.165v-0.283h-0.509c-1.503,0-3.93,0.213-3.93,1.89
			C210.616,107.86,211.194,108.616,212.396,108.616z"/>
		<path class="st0" d="M229.558,98.626v12.402c0,4.039-3.306,4.535-4.924,4.535c-0.555,0-0.901-0.072-0.901-0.072v-2.527
			c0,0,0.208,0.046,0.509,0.046c0.831,0,2.38-0.26,2.38-2.218V98.626H229.558z M226.622,93.904h2.914v2.668h-2.914V93.904z"/>
		<path class="st0" d="M232.636,98.626h2.937v7.134c0,1.463,0.371,2.455,1.827,2.455c2.128,0,3.307-1.913,3.307-4.062v-5.527h2.937
			v12.047h-2.821v-1.37c0-0.473,0.046-0.851,0.046-0.851h-0.046c-0.578,1.252-2.083,2.504-4.093,2.504
			c-2.521,0-4.093-1.298-4.093-4.581V98.626z"/>
		<path class="st0" d="M247.232,107.081c0,0,1.295,1.324,3.215,1.324c0.831,0,1.549-0.378,1.549-1.088
			c0-1.794-5.735-1.558-5.735-5.432c0-2.244,1.965-3.542,4.509-3.542c2.66,0,3.955,1.37,3.955,1.37l-1.088,2.218
			c0,0-1.088-1.039-2.891-1.039c-0.763,0-1.503,0.332-1.503,1.088c0,1.699,5.735,1.489,5.735,5.36c0,2.008-1.711,3.615-4.509,3.615
			c-2.937,0-4.578-1.771-4.578-1.771L247.232,107.081z"/>
		<path class="st0" d="M257.849,101.202h-1.526v-2.386h1.595v-3.473h2.867v3.473h2.683v2.386h-2.683v4.676
			c0,1.982,1.526,2.267,2.337,2.267c0.323,0,0.531-0.049,0.531-0.049v2.622c0,0-0.346,0.072-0.901,0.072
			c-1.641,0-4.903-0.496-4.903-4.535V101.202z"/>
		<path class="st0" d="M266.062,93.904h2.914v2.668h-2.914V93.904z M266.062,98.626h2.937v12.047h-2.937V98.626z"/>
		<path class="st0" d="M277.786,98.343c3.077,0,4.533,1.794,4.533,1.794l-1.295,2.054c0,0-1.225-1.298-3.075-1.298
			c-2.174,0-3.584,1.676-3.584,3.733c0,2.031,1.434,3.779,3.677,3.779c1.989,0,3.469-1.535,3.469-1.535l1.132,2.123
			c0,0-1.688,1.962-4.856,1.962c-3.906,0-6.404-2.81-6.404-6.306C271.382,101.225,273.88,98.343,277.786,98.343z"/>
		<path class="st0" d="M284.843,93.904h2.914v2.668h-2.914V93.904z M284.843,98.626h2.937v12.047h-2.937V98.626z"/>
		<path class="st0" d="M297.01,103.115h0.392v-0.167c0-1.581-0.972-2.123-2.266-2.123c-1.689,0-3.238,1.157-3.238,1.157
			l-1.109-2.149c0,0,1.827-1.489,4.624-1.489c3.1,0,4.903,1.748,4.903,4.794v7.535h-2.706v-0.992c0-0.473,0.046-0.851,0.046-0.851
			h-0.046c0.023,0-0.901,2.126-3.584,2.126c-2.104,0-4-1.347-4-3.756C290.026,103.374,295.088,103.115,297.01,103.115z
			 M294.765,108.616c1.549,0,2.66-1.699,2.66-3.165v-0.283h-0.509c-1.503,0-3.93,0.213-3.93,1.89
			C292.985,107.86,293.562,108.616,294.765,108.616z"/>
	</g>
	<g>
		<path class="st0" d="M35.976,22.807h-0.098c0,0-0.805,3.28-1.406,5.123l-3.965,11.478h10.738L37.331,27.93
			C36.73,26.087,35.976,22.807,35.976,22.807z"/>
		<path class="st0" d="M35.922,0C16.084,0,0,16.085,0,35.925C0,55.766,16.084,71.85,35.922,71.85
			c19.844,0,35.929-16.085,35.929-35.925C71.85,16.085,55.766,0,35.922,0z M46.113,54.014l-3.565-10.402H29.203l-3.514,10.402h-5.12
			l12.748-36.177h5.218l12.745,36.177H46.113z"/>
		<path class="st0" d="M117.654,0C97.816,0,81.732,16.085,81.732,35.925c0,19.841,16.084,35.925,35.922,35.925
			c19.844,0,35.929-16.085,35.929-35.925C153.582,16.085,137.498,0,117.654,0z M119.782,54.628c-10.64,0-18.119-8.301-18.119-18.907
			c0-10.507,7.73-18.499,18.017-18.499c8.532,0,12.897,4.763,12.897,4.763l-2.461,3.792c0,0-4.115-3.945-10.236-3.945
			c-7.927,0-13.098,6.148-13.098,13.834c0,7.741,5.269,14.3,13.149,14.3c6.675,0,10.939-4.716,10.939-4.716l2.662,3.639
			C133.532,48.891,128.664,54.628,119.782,54.628z"/>
		<path class="st0" d="M199.657,0c-19.837,0-35.922,16.085-35.922,35.925c0,19.841,16.084,35.925,35.922,35.925
			c19.844,0,35.928-16.085,35.928-35.925C235.585,16.085,219.501,0,199.657,0z M202.625,54.014h-4.967V17.837h4.967V54.014z"/>
		<path class="st0" d="M281.661,0c-19.837,0-35.922,16.085-35.922,35.925c0,19.841,16.084,35.925,35.922,35.925
			c19.844,0,35.929-16.085,35.929-35.925C317.59,16.085,301.505,0,281.661,0z M292.328,43.304c0,7.839-5.371,11.017-10.538,11.017
			c-5.171,0-10.491-3.229-10.491-11.017v-1.793h4.919v1.535c0,4.923,2.811,6.613,5.622,6.613c2.757,0,5.517-1.64,5.517-6.406V21.936
			h-8.932V17.53h13.902V43.304z"/>
	</g>
</g>
</svg>
